<svg width="953" height="144" viewBox="0 0 953 144" fill="none" xmlns="http://www.w3.org/2000/svg">
<path d="M92.75 23.3125L93.9375 25.9375C88.4375 27.8542 84.375 29.7917 81.75 31.75C79.125 33.7083 77.4167 35.7708 76.625 37.9375C75.8333 40.1042 75.4375 43.625 75.4375 48.5V61.4375L99.8125 41.875C104.938 45.125 108.812 48.1875 111.438 51.0625C114.062 53.9375 115.792 56.8125 116.625 59.6875C117.5 62.5625 117.938 67.2708 117.938 73.8125V83.125C117.938 88 117.625 91.625 117 94C116.417 96.375 115.208 98.7292 113.375 101.062C110.708 104.479 106.125 108.75 99.625 113.875C94.9583 117.542 92.0833 120.083 91 121.5C89.9167 122.917 89.375 124.125 89.375 125.125C89.375 125.667 89.5833 126.146 90 126.562C90.4167 126.979 91 127.188 91.75 127.188C92.2083 127.188 92.8333 127.083 93.625 126.875C94.4583 126.708 95.1042 126.625 95.5625 126.625C96.6458 126.625 97.4583 126.896 98 127.438C98.5417 127.979 98.8125 128.729 98.8125 129.688C98.8125 130.854 98.3542 131.812 97.4375 132.562C96.1875 133.604 94.6667 134.125 92.875 134.125C90.9583 134.125 89.3125 133.354 87.9375 131.812C86.5625 130.312 85.875 128.479 85.875 126.312C85.875 124.812 86.375 123.042 87.375 121C88.4167 119 90.9583 115.521 95 110.562C99.0417 105.562 101.646 101.792 102.812 99.25C104.021 96.6667 104.854 93.5417 105.312 89.875C100.146 87.4583 95.4583 86.25 91.25 86.25C85.875 86.25 80.5625 87.4792 75.3125 89.9375C70.0625 92.3958 64 96.75 57.125 103C60 102.875 62.1458 102.812 63.5625 102.812C66.8542 102.812 71.2708 103.083 76.8125 103.625C78.3542 103.792 79.7083 103.875 80.875 103.875C82.9167 103.875 84.7292 103.375 86.3125 102.375C87.9375 101.375 89.5833 99.6667 91.25 97.25L93.9375 98.75L80 118.375C74.2917 115.958 69.3125 114.25 65.0625 113.25C60.8542 112.25 56.5833 111.75 52.25 111.75C47.375 111.75 43.0417 112.354 39.25 113.562C35.4583 114.729 32.7917 116.229 31.25 118.062C30.0833 119.479 29.5 120.75 29.5 121.875C29.5 122.667 30 123.812 31 125.312C31.7083 126.312 32.0625 127.271 32.0625 128.188C32.0625 129.229 31.75 130.083 31.125 130.75C30.5 131.417 29.7917 131.75 29 131.75C28 131.75 27.0208 131.188 26.0625 130.062C25.1042 128.938 24.625 127.562 24.625 125.938C24.625 123.979 25.1458 122.042 26.1875 120.125C27.2708 118.25 29.625 115.479 33.25 111.812C36.9167 108.104 39.2917 105.25 40.375 103.25C41.4583 101.25 42 99.2917 42 97.375C42 95.9167 41.6042 94.7708 40.8125 93.9375C40.0208 93.1042 38.9583 92.6875 37.625 92.6875C35.125 92.6875 33.1042 94.4792 31.5625 98.0625H28.8125C29.1875 94.7708 29.875 92.2708 30.875 90.5625C31.875 88.8542 33.3958 87.3958 35.4375 86.1875C37.0208 85.2708 39.1458 84.7083 41.8125 84.5C41.6042 79.4583 40.5833 75.9792 38.75 74.0625C36.9583 72.1042 34.375 71.125 31 71.125C28.9167 71.125 27.2708 71.5208 26.0625 72.3125C24.8542 73.0625 23.6458 74.5208 22.4375 76.6875L20.125 76C20.625 73.2917 21.3125 71.25 22.1875 69.875C23.5625 67.8333 25.3958 66.25 27.6875 65.125C29.9792 63.9583 32.4167 63.375 35 63.375C36.5833 63.375 38.4167 63.4792 40.5 63.6875C40.375 61.7292 40.3125 60.0833 40.3125 58.75C40.3125 53.75 41.6875 48.9792 44.4375 44.4375C46.4375 41.1875 49.7917 37.7917 54.5 34.25C49.8333 35.75 46.6875 36.5 45.0625 36.5C43.6458 36.5 39.8958 35.9583 33.8125 34.875C31.4375 34.4167 29.8542 34.1875 29.0625 34.1875C27.6042 34.1875 26.2708 34.8125 25.0625 36.0625C23.8958 37.2708 23.0208 39.5 22.4375 42.75H19.25C19.9167 38.9167 20.8333 35.9792 22 33.9375C23.8333 30.8958 26.125 28.5625 28.875 26.9375C31.625 25.2708 34.3958 24.4375 37.1875 24.4375C38.8542 24.4375 41.7708 25.0417 45.9375 26.25C50.1042 27.4167 53.4167 28 55.875 28C60.875 28 66.4583 26.4375 72.625 23.3125L73.9375 25.9375C65.4792 29.2292 59.6667 33.3125 56.5 38.1875C54.4167 41.3958 53.375 46.6458 53.375 53.9375V83.125C53.375 88.2917 52.8333 92.3125 51.75 95.1875C50.7083 98.0208 48.3542 101.708 44.6875 106.25C49.7708 103.375 53.6667 100.479 56.375 97.5625C59.0833 94.6042 60.7917 91.8542 61.5 89.3125C62.25 86.7292 62.625 82.2917 62.625 76V54.75C62.625 48.125 63.375 43.2083 64.875 40C66.4167 36.7917 69.0625 33.9583 72.8125 31.5C76.5625 29.0417 83.2083 26.3125 92.75 23.3125ZM75.4375 65.0625V67.875C80.8958 70.0417 85.9583 71.125 90.625 71.125C93.4167 71.125 95.8542 70.8542 97.9375 70.3125C100.062 69.7708 102.521 68.7917 105.312 67.375C104.562 64.2917 103.208 61.6042 101.25 59.3125C99.2917 56.9792 96.1667 54.6042 91.875 52.1875L75.4375 65.0625ZM75.4375 86.6875C80.5625 84.4792 85.4375 83.375 90.0625 83.375C92.6042 83.375 94.9583 83.6042 97.125 84.0625C99.3333 84.5208 102.062 85.3958 105.312 86.6875V70.625C102.188 71.9583 99.5625 72.875 97.4375 73.375C95.3125 73.8333 92.9375 74.0625 90.3125 74.0625C85.5625 74.0625 80.6042 73.0417 75.4375 71V86.6875ZM145.062 30H153L144.375 43.5H141.875L145.062 30ZM140.312 51.375L151.438 60.5625L146.5 65.375V99.375C146.5 102.958 146.833 105.292 147.5 106.375C148.167 107.458 148.854 108 149.562 108C150.062 108 150.521 107.896 150.938 107.688C151.521 107.396 152.729 106.562 154.562 105.188L156.062 107.125L141.875 118C138.542 115.625 136.396 113.396 135.438 111.312C134.479 109.188 134 105.5 134 100.25V65.375L129.312 60.5625L140.312 51.375ZM202.75 51.375L213 60.9375L219.062 55.0625L220.812 56.75C217.896 59.4167 216.125 61.4375 215.5 62.8125C214.667 64.6458 214.25 67.1667 214.25 70.375V100.062C214.25 102.812 214.688 104.854 215.562 106.188C216.104 107.062 216.708 107.5 217.375 107.5C217.958 107.5 219.333 106.688 221.5 105.062L223 107L209.562 118C206.104 115.375 203.875 113.062 202.875 111.062C201.917 109.021 201.438 105.75 201.438 101.25V66.8125L194.625 60.9375L184.5 69V104.562L189 109.062L177.938 118L166.812 109.062L171.688 104.562V72.625C171.688 68.0833 171.229 65.0208 170.312 63.4375C169.688 62.3542 168.979 61.8125 168.188 61.8125C167.354 61.8125 166.104 62.4583 164.438 63.75L162.938 62L176.25 51.375C179.917 53.9583 182.208 56 183.125 57.5C184.042 59 184.5 61.0833 184.5 63.75V65.875L202.75 51.375ZM228.625 30.0625L271.062 59.25C271.729 57.7083 272.458 56.5417 273.25 55.75C274.083 54.9583 275.333 54.2083 277 53.5V56.0625C276.167 57.1875 275.625 58.2083 275.375 59.125C275.125 60.0417 275 61.9167 275 64.75V106.812C269.708 108.812 265.771 110.562 263.188 112.062C260.604 113.521 257.812 115.5 254.812 118C249.896 114.792 245.542 112.458 241.75 111C237.958 109.542 233.875 108.542 229.5 108V106.812C231 105.521 231.958 104.229 232.375 102.938C232.833 101.604 233.062 98.875 233.062 94.75V62C238.771 60.4167 242.812 58.625 245.188 56.625L228.625 45.3125V30.0625ZM262.25 68.3125L249.438 59.4375C248.271 60.3958 247.083 61.2292 245.875 61.9375V100.562L262.25 107.812V68.3125ZM330.438 51.375L341.625 60.625L336.562 65.25V98.0625C336.562 101.854 337.083 104.562 338.125 106.188C338.792 107.312 339.521 107.875 340.312 107.875C340.896 107.875 342.021 107.188 343.688 105.812L345.312 107.812L332.125 118C328.792 115.667 326.604 113.583 325.562 111.75C324.562 109.875 324.021 106.917 323.938 102.875C317.479 107.042 310.896 112.083 304.188 118C300.146 114.833 297.5 112.062 296.25 109.688C295 107.271 294.375 104.104 294.375 100.188V69.3125C294.375 67.1458 294.208 65.7292 293.875 65.0625C293.292 63.8958 292.5 63.3125 291.5 63.3125C290.75 63.3125 289.625 63.9583 288.125 65.25L286.438 63.5L300.312 51.375L311.625 60.625L307 64.875V98.0625C307 100.521 307.312 102.333 307.938 103.5C308.562 104.625 310.083 106.062 312.5 107.812L323.938 99.375V65.25L319.5 60.625L330.438 51.375ZM384.812 74.5625L399.25 82.125V108.438C395.75 108.771 392.583 109.625 389.75 111C386.917 112.375 383.708 114.708 380.125 118C377.042 116.167 374.354 114.896 372.062 114.188C369.812 113.479 367.417 113.125 364.875 113.125C360.958 113.125 357.479 114.312 354.438 116.688C353.312 117.562 352.5 118 352 118C351.542 118 351.083 117.771 350.625 117.312C350.167 116.854 349.938 116.396 349.938 115.938C349.938 115.438 350.375 114.771 351.25 113.938C351.75 113.438 352.604 112.479 353.812 111.062L359.5 104L367.562 93.3125L353.875 85.9375V62.625C358.167 61.2917 361.521 59.8125 363.938 58.1875C366.396 56.5208 368.75 54.25 371 51.375C376.333 53.625 380.625 55.2083 383.875 56.125C386.208 56.75 388.438 57.0625 390.562 57.0625C392.896 57.0625 394.708 56.5625 396 55.5625C397.292 54.5208 397.938 53.4375 397.938 52.3125C397.938 51.5625 397.521 50.8125 396.688 50.0625C395.062 48.6042 394.25 47.1875 394.25 45.8125C394.25 44.5208 394.604 43.5 395.312 42.75C396.021 41.9583 396.812 41.5625 397.688 41.5625C398.854 41.5625 399.896 42.1042 400.812 43.1875C401.771 44.2292 402.25 45.625 402.25 47.375C402.25 49.1667 401.875 50.9167 401.125 52.625C400.375 54.3333 398.938 56.5417 396.812 59.25L384.812 74.5625ZM366.5 78.875L375.062 83.3125L388.688 65.1875C385.896 65.9792 383.479 66.375 381.438 66.375C376.312 66.375 371.333 64.6667 366.5 61.25V78.875ZM377.25 84.5625L362.188 104.75C364.021 104.125 365.729 103.667 367.312 103.375C368.896 103.083 370.333 102.938 371.625 102.938C376.417 102.938 381.396 104.521 386.562 107.688V89.5625L377.25 84.5625ZM408.562 58.25L426 36.6875H427.812L427.188 53.9375H439.75V61H427.188V103.062L434.188 108.25L438.188 105.125L439.75 107L426 118C421.292 113.208 415.958 109.958 410 108.25V107C411.667 105.875 412.771 104.708 413.312 103.5C414.021 101.958 414.375 99.7292 414.375 96.8125V61H408.562V58.25ZM490.875 54.0625L493.125 54.9375C490.875 58.4375 489.438 61.125 488.812 63C488.229 64.8333 487.938 67.3333 487.938 70.5V97.125C487.938 101.542 488.271 104.312 488.938 105.438C489.646 106.521 490.479 107.062 491.438 107.062C491.938 107.062 492.458 106.938 493 106.688C493.333 106.479 494.312 105.729 495.938 104.438L497.312 106.5L483.375 118C480.167 115.5 478.021 113.271 476.938 111.312C475.854 109.312 475.25 106.542 475.125 103L456.125 118C449 112.167 445.438 106.417 445.438 100.75C445.438 96.9583 446.208 93.3958 447.75 90.0625C449.792 85.6875 453.312 80.5833 458.312 74.75L450.812 58.75L451.688 57C453.312 57.1667 454.521 57.25 455.312 57.25C460.229 57.25 464.562 55.2917 468.312 51.375C471.354 53.1667 474.667 54.6042 478.25 55.6875C481.875 56.7708 484.646 57.3125 486.562 57.3125C487.438 57.3125 488.104 57.1667 488.562 56.875C489.021 56.5417 489.792 55.6042 490.875 54.0625ZM475.125 66L453.75 59.4375L461.375 75.5625L475.125 82V66ZM475.125 84.5625L460 77.5C457.667 82.5833 456.5 87.0417 456.5 90.875C456.5 97.625 459.562 103.188 465.688 107.562L475.125 99.9375V84.5625ZM541.875 51.375L552.125 60.9375L558.188 55.0625L559.938 56.75C557.021 59.4167 555.25 61.4375 554.625 62.8125C553.792 64.6458 553.375 67.1667 553.375 70.375V100.062C553.375 102.812 553.812 104.854 554.688 106.188C555.229 107.062 555.833 107.5 556.5 107.5C557.083 107.5 558.458 106.688 560.625 105.062L562.125 107L548.688 118C545.229 115.375 543 113.062 542 111.062C541.042 109.021 540.562 105.75 540.562 101.25V66.8125L533.75 60.9375L523.625 69V104.562L528.125 109.062L517.062 118L505.938 109.062L510.812 104.562V72.625C510.812 68.0833 510.354 65.0208 509.438 63.4375C508.812 62.3542 508.104 61.8125 507.312 61.8125C506.479 61.8125 505.229 62.4583 503.562 63.75L502.062 62L515.375 51.375C519.042 53.9583 521.333 56 522.25 57.5C523.167 59 523.625 61.0833 523.625 63.75V65.875L541.875 51.375Z" fill="black"/>
<path d="M693.812 24.5625L696.125 26.1875C695.25 30.2292 694.042 33.4167 692.5 35.75C691 38.0833 688.771 39.9375 685.812 41.3125C682.896 42.6458 679.521 43.3125 675.688 43.3125C673.646 43.3125 671.167 43.1875 668.25 42.9375V106.125C674.583 104.208 679.625 101.75 683.375 98.75C687.125 95.7083 690.604 91.3542 693.812 85.6875L696.125 86.8125C694.292 92.3958 692.167 96.875 689.75 100.25C685.875 105.708 680.875 110.042 674.75 113.25C668.625 116.417 661.542 118 653.5 118C645.667 118 638.333 116.5 631.5 113.5C627.542 111.75 623.917 109.292 620.625 106.125C617.333 102.958 614.625 99.125 612.5 94.625C610.417 90.125 609.375 85.0208 609.375 79.3125C609.375 73.5625 610.521 68.0625 612.812 62.8125C615.104 57.5625 618.479 52.5417 622.938 47.75C625.771 44.75 629.771 41.4375 634.938 37.8125L627.062 37.375C624.146 37.2083 620.917 37.8333 617.375 39.25C613.833 40.625 611.062 42.4792 609.062 44.8125C607.104 47.1458 605.396 50.625 603.938 55.25L601.625 53.875C603.042 47.9583 604.875 43.3542 607.125 40.0625C610.125 35.6875 614.083 32.3125 619 29.9375C623.917 27.5208 629.521 26.3125 635.812 26.3125C640.188 26.3125 647.917 27.2292 659 29.0625C670.083 30.8958 677.708 31.8125 681.875 31.8125C684.667 31.8125 686.792 31.3958 688.25 30.5625C689.75 29.6875 691.604 27.6875 693.812 24.5625ZM641.938 38.4375L638.625 38.125C633.042 42.9167 628.938 47.7083 626.312 52.5C622.771 58.9583 621 65.6042 621 72.4375C621 84.1042 625.792 93.625 635.375 101C638.417 98.4583 640.271 96.3958 640.938 94.8125C641.604 93.2292 641.938 90 641.938 85.125V38.4375ZM665.375 42.375C661.417 41.8333 657.917 41.25 654.875 40.625V78C654.875 82.375 654.688 85.1667 654.312 86.375C653.979 87.5417 653.167 88.875 651.875 90.375C649.542 92.9583 644.875 97.0417 637.875 102.625C641.375 104.333 644.208 105.479 646.375 106.062C650.125 107.062 653.729 107.562 657.188 107.562C659.021 107.562 661.75 107.333 665.375 106.875V42.375ZM719.562 30H727.5L718.875 43.5H716.375L719.562 30ZM714.812 51.375L725.938 60.5625L721 65.375V99.375C721 102.958 721.333 105.292 722 106.375C722.667 107.458 723.354 108 724.062 108C724.562 108 725.021 107.896 725.438 107.688C726.021 107.396 727.229 106.562 729.062 105.188L730.562 107.125L716.375 118C713.042 115.625 710.896 113.396 709.938 111.312C708.979 109.188 708.5 105.5 708.5 100.25V65.375L703.812 60.5625L714.812 51.375ZM821.625 55L823.438 56.6875C821.062 58.7708 819.458 60.4375 818.625 61.6875C817.833 62.9375 817.312 64.1875 817.062 65.4375C816.812 66.6875 816.688 69.25 816.688 73.125V99.125C816.688 102.542 817.042 104.812 817.75 105.938C818.458 107.062 819.125 107.625 819.75 107.625C820.625 107.625 822.146 106.792 824.312 105.125L825.75 106.938L811.875 118C808.792 115.583 806.792 113.583 805.875 112C804.542 109.667 803.875 107.188 803.875 104.562V66.875L797.562 61.4375L787.562 70.6875V104.562L792.312 109.625L781.375 118L770.312 109.625L774.875 104.562V73.5C774.875 69.875 774.604 67.5417 774.062 66.5C773.312 65.0833 771.5 63.3958 768.625 61.4375L758.75 69.75V104.562L763.562 109.625L752.562 118L741.375 109.625L746.25 104.562V71.125C746.25 67.6667 745.771 65.1667 744.812 63.625C744.062 62.4583 743.375 61.875 742.75 61.875C742 61.875 740.479 62.7292 738.188 64.4375L736.812 62.375L750.438 51.375C753.271 53.375 755.188 55.0208 756.188 56.3125C757.229 57.5625 757.958 58.9375 758.375 60.4375C758.625 61.5208 758.75 63.6667 758.75 66.875L777.375 51.375C781.458 54.625 784.125 57.3125 785.375 59.4375C786.625 61.5625 787.354 64.2708 787.562 67.5625L805.125 51.375L815.375 60.9375L821.625 55ZM859.5 51.375L877.125 71.9375L849.125 91.5625V102.938L863.625 108.688L873.438 102L874.812 103.875L854.562 118C850.438 115.792 847.042 114.208 844.375 113.25C841.708 112.292 837.917 111.292 833 110.25V108.688C834.417 107.854 835.354 106.833 835.812 105.625C836.312 104.375 836.562 101.708 836.562 97.625V61.875C840.479 60.4583 843.729 59.1667 846.312 58C848.188 57.125 852.583 54.9167 859.5 51.375ZM850 58.5625L849.125 59V87.3125L865.562 75.8125L850 58.5625ZM915.562 74.5625L930 82.125V108.438C926.5 108.771 923.333 109.625 920.5 111C917.667 112.375 914.458 114.708 910.875 118C907.792 116.167 905.104 114.896 902.812 114.188C900.562 113.479 898.167 113.125 895.625 113.125C891.708 113.125 888.229 114.312 885.188 116.688C884.062 117.562 883.25 118 882.75 118C882.292 118 881.833 117.771 881.375 117.312C880.917 116.854 880.688 116.396 880.688 115.938C880.688 115.438 881.125 114.771 882 113.938C882.5 113.438 883.354 112.479 884.562 111.062L890.25 104L898.312 93.3125L884.625 85.9375V62.625C888.917 61.2917 892.271 59.8125 894.688 58.1875C897.146 56.5208 899.5 54.25 901.75 51.375C907.083 53.625 911.375 55.2083 914.625 56.125C916.958 56.75 919.188 57.0625 921.312 57.0625C923.646 57.0625 925.458 56.5625 926.75 55.5625C928.042 54.5208 928.688 53.4375 928.688 52.3125C928.688 51.5625 928.271 50.8125 927.438 50.0625C925.812 48.6042 925 47.1875 925 45.8125C925 44.5208 925.354 43.5 926.062 42.75C926.771 41.9583 927.562 41.5625 928.438 41.5625C929.604 41.5625 930.646 42.1042 931.562 43.1875C932.521 44.2292 933 45.625 933 47.375C933 49.1667 932.625 50.9167 931.875 52.625C931.125 54.3333 929.688 56.5417 927.562 59.25L915.562 74.5625ZM897.25 78.875L905.812 83.3125L919.438 65.1875C916.646 65.9792 914.229 66.375 912.188 66.375C907.062 66.375 902.083 64.6667 897.25 61.25V78.875ZM908 84.5625L892.938 104.75C894.771 104.125 896.479 103.667 898.062 103.375C899.646 103.083 901.083 102.938 902.375 102.938C907.167 102.938 912.146 104.521 917.312 107.688V89.5625L908 84.5625Z" fill="#5B83D1"/>
</svg>
