<svg width="1092" height="169" viewBox="0 0 1092 169" fill="none" xmlns="http://www.w3.org/2000/svg">
<path d="M26.25 131V39.5H45.8125V76.1875H85.5V39.5H105.062V131H85.5V92.75H45.8125V131H26.25ZM123.062 44.5C123.062 41.6667 124.083 39.2292 126.125 37.1875C128.167 35.1458 130.604 34.125 133.438 34.125C136.312 34.125 138.771 35.1458 140.812 37.1875C142.896 39.1875 143.938 41.625 143.938 44.5C143.938 47.375 142.896 49.8333 140.812 51.875C138.771 53.9167 136.312 54.9375 133.438 54.9375C130.604 54.9375 128.167 53.8958 126.125 51.8125C124.083 49.7292 123.062 47.2917 123.062 44.5ZM124.625 131V69.6875H142.375V131H124.625ZM160.438 131V69.6875H177.875V79.3125C181.083 75.3125 184.521 72.375 188.188 70.5C191.896 68.5833 196 67.625 200.5 67.625C205.25 67.625 209.229 68.4375 212.438 70.0625C215.688 71.6458 218.25 74.0833 220.125 77.375C221.042 79.0833 221.688 81.0208 222.062 83.1875C222.479 85.3125 222.688 88.6667 222.688 93.25V95.1875V131H204.875V100.688C204.875 93.1458 204 88.1667 202.25 85.75C200.5 83.3333 197.5 82.125 193.25 82.125C190.792 82.125 188.521 82.6458 186.438 83.6875C184.396 84.6875 182.688 86.125 181.312 88C180.229 89.4583 179.438 91.125 178.938 93C178.479 94.875 178.25 97.7292 178.25 101.562V104V131H160.438ZM284.75 100.25C284.75 94.75 283.354 90.3958 280.562 87.1875C277.812 83.9792 274.083 82.375 269.375 82.375C264.542 82.375 260.729 83.9583 257.938 87.125C255.188 90.25 253.812 94.5833 253.812 100.125C253.812 105.667 255.167 110 257.875 113.125C260.625 116.25 264.417 117.812 269.25 117.812C274.167 117.812 277.979 116.271 280.688 113.188C283.396 110.104 284.75 105.792 284.75 100.25ZM301 131H283.75L284 122.188C281.583 126.062 278.667 128.917 275.25 130.75C271.875 132.542 267.75 133.438 262.875 133.438C254.75 133.438 248.188 130.417 243.188 124.375C238.229 118.333 235.75 110.354 235.75 100.438C235.75 90.0625 238.188 81.9792 243.062 76.1875C247.979 70.3958 254.792 67.5 263.5 67.5C267.958 67.5 271.875 68.5208 275.25 70.5625C278.625 72.6042 281.792 75.8333 284.75 80.25C284.542 78.75 284.375 77.1042 284.25 75.3125C284.167 73.4792 284.125 71.3958 284.125 69.0625V34.125H301V131ZM335.875 69.6875V101.938C335.875 107.354 336.917 111.229 339 113.562C341.125 115.896 344.562 117.062 349.312 117.062C354.021 117.062 357.438 115.896 359.562 113.562C361.688 111.188 362.75 107.312 362.75 101.938V69.6875H380.562V101.938C380.562 112.729 378.042 120.688 373 125.812C367.958 130.896 360.146 133.438 349.562 133.438C338.771 133.438 330.833 130.896 325.75 125.812C320.708 120.729 318.188 112.771 318.188 101.938V69.6875H335.875ZM391.688 120.25L405.375 113.188C405.833 115.562 407.062 117.438 409.062 118.812C411.062 120.188 413.542 120.875 416.5 120.875C419.417 120.875 421.708 120.354 423.375 119.312C425.042 118.229 425.875 116.75 425.875 114.875C425.875 111.917 422.917 109.438 417 107.438C415.167 106.812 413.708 106.292 412.625 105.875C405.417 103.167 400.417 100.438 397.625 97.6875C394.875 94.9375 393.5 91.5417 393.5 87.5C393.5 81.5 395.854 76.6458 400.562 72.9375C405.271 69.2292 411.479 67.375 419.188 67.375C424.688 67.375 429.438 68.4792 433.438 70.6875C437.479 72.8958 440.417 76.0208 442.25 80.0625L429.188 86.5625C428.479 84.2708 427.25 82.5417 425.5 81.375C423.75 80.1667 421.562 79.5625 418.938 79.5625C416.312 79.5625 414.188 80.1042 412.562 81.1875C410.938 82.2708 410.125 83.6875 410.125 85.4375C410.125 88.4792 414.167 91.3125 422.25 93.9375C423.208 94.2292 423.938 94.4583 424.438 94.625C431.146 96.8333 435.917 99.4167 438.75 102.375C441.583 105.292 443 109.021 443 113.562C443 119.646 440.646 124.479 435.938 128.062C431.229 131.646 424.875 133.438 416.875 133.438C410.542 133.438 405.125 132.271 400.625 129.938C396.167 127.562 393.188 124.333 391.688 120.25ZM458.25 131V83.625H449.688V69.6875H458.25V49.3125H476.062V69.6875H484.625V83.625H476.062V131H458.25ZM540.875 100.25C540.875 94.75 539.479 90.3958 536.688 87.1875C533.938 83.9792 530.208 82.375 525.5 82.375C520.667 82.375 516.854 83.9792 514.062 87.1875C511.312 90.3542 509.938 94.7083 509.938 100.25C509.938 105.792 511.292 110.104 514 113.188C516.75 116.271 520.542 117.812 525.375 117.812C530.292 117.812 534.104 116.271 536.812 113.188C539.521 110.104 540.875 105.792 540.875 100.25ZM557.125 131H539.875L540.125 122.188C537.708 126.062 534.792 128.917 531.375 130.75C528 132.542 523.875 133.438 519 133.438C510.875 133.438 504.312 130.417 499.312 124.375C494.354 118.333 491.875 110.354 491.875 100.438C491.875 90.1042 494.312 82.0625 499.188 76.3125C504.104 70.5208 510.917 67.625 519.625 67.625C524.167 67.625 528.146 68.6458 531.562 70.6875C535.021 72.7292 537.917 75.7708 540.25 79.8125V69.6875H557.125V131ZM573.938 131V69.6875H591.375V79.3125C594.583 75.3125 598.021 72.375 601.688 70.5C605.396 68.5833 609.5 67.625 614 67.625C618.75 67.625 622.729 68.4375 625.938 70.0625C629.188 71.6458 631.75 74.0833 633.625 77.375C634.542 79.0833 635.188 81.0208 635.562 83.1875C635.979 85.3125 636.188 88.6667 636.188 93.25V95.1875V131H618.375V100.688C618.375 93.1458 617.5 88.1667 615.75 85.75C614 83.3333 611 82.125 606.75 82.125C604.292 82.125 602.021 82.6458 599.938 83.6875C597.896 84.6875 596.188 86.125 594.812 88C593.729 89.4583 592.938 91.125 592.438 93C591.979 94.875 591.75 97.7292 591.75 101.562V104V131H573.938Z" fill="black"/>
<path d="M728.188 56.125V131H708.562V56.125H686.188V39.5H750.688V56.125H728.188ZM760.938 44.5C760.938 41.6667 761.958 39.2292 764 37.1875C766.042 35.1458 768.479 34.125 771.312 34.125C774.188 34.125 776.646 35.1458 778.688 37.1875C780.771 39.1875 781.812 41.625 781.812 44.5C781.812 47.375 780.771 49.8333 778.688 51.875C776.646 53.9167 774.188 54.9375 771.312 54.9375C768.479 54.9375 766.042 53.8958 764 51.8125C761.958 49.7292 760.938 47.2917 760.938 44.5ZM762.5 131V69.6875H780.25V131H762.5ZM815.875 131H798.062V69.6875H815.875V79.3125C818.792 75.2708 821.896 72.3125 825.188 70.4375C828.521 68.5625 832.292 67.625 836.5 67.625C841.583 67.625 845.708 68.6667 848.875 70.75C852.083 72.8333 854.354 75.9792 855.688 80.1875C858.521 76.0208 861.729 72.8958 865.312 70.8125C868.938 68.6875 872.896 67.625 877.188 67.625C881.521 67.625 885.188 68.4375 888.188 70.0625C891.229 71.6458 893.583 74.0417 895.25 77.25C896.125 79 896.75 80.9792 897.125 83.1875C897.5 85.3958 897.688 88.75 897.688 93.25V95.1875V131H879.875V100.688C879.875 93.2292 879.104 88.2708 877.562 85.8125C876.062 83.3542 873.417 82.125 869.625 82.125C865.042 82.125 861.708 83.8333 859.625 87.25C857.583 90.6667 856.562 96.25 856.562 104V131H838.75V100.688C838.75 93.4792 838.042 88.6042 836.625 86.0625C835.208 83.5208 832.771 82.25 829.312 82.25C824.604 82.25 821.188 83.9792 819.062 87.4375C816.938 90.8542 815.875 96.375 815.875 104V131ZM956.938 94C956.438 90.125 955.021 87.2083 952.688 85.25C950.396 83.25 947.25 82.25 943.25 82.25C939.25 82.25 936.042 83.25 933.625 85.25C931.25 87.2083 929.729 90.125 929.062 94H956.938ZM974.562 104.75H928.5C929.208 109.167 930.812 112.479 933.312 114.688C935.812 116.854 939.208 117.938 943.5 117.938C946.75 117.938 949.542 117.312 951.875 116.062C954.25 114.812 956.229 112.917 957.812 110.375L972.188 117.562C968.854 122.938 964.812 126.938 960.062 129.562C955.312 132.146 949.667 133.438 943.125 133.438C933.208 133.438 925.354 130.479 919.562 124.562C913.771 118.646 910.875 110.688 910.875 100.688C910.875 91.0625 913.896 83.1458 919.938 76.9375C926.021 70.7292 933.792 67.625 943.25 67.625C953 67.625 960.708 70.5417 966.375 76.375C972.042 82.1667 974.875 90.0833 974.875 100.125C974.875 100.667 974.854 101.271 974.812 101.938C974.771 102.562 974.688 103.5 974.562 104.75Z" fill="#5B83D1"/>
<path d="M1020.4 147.925V157H982.375L1001.88 131.425C1004.58 127.9 1006.45 125.125 1007.5 123.1C1008.58 121.075 1009.11 119.287 1009.11 117.737C1009.11 115.587 1008.46 113.9 1007.16 112.675C1005.89 111.45 1004.13 110.837 1001.88 110.837C999.775 110.837 998.1 111.612 996.85 113.162C995.6 114.687 994.975 116.75 994.975 119.35V119.612H983.913V118.675C983.913 113.225 985.475 109.012 988.6 106.037C991.725 103.037 996.15 101.537 1001.88 101.537C1007.73 101.537 1012.28 102.875 1015.53 105.55C1018.78 108.225 1020.4 111.962 1020.4 116.762C1020.4 122.162 1016.18 130.137 1007.73 140.687L1006.94 141.625L1001.88 147.925H1020.4ZM1056.98 157V146.462H1030.54V141.4L1056.98 101.537H1067.03V138.662H1072.8V146.462H1067.03V157H1056.98ZM1057.13 138.662V119.762C1057.13 117.912 1057.15 116.512 1057.2 115.562C1057.28 114.612 1057.38 113.737 1057.5 112.937C1057.03 114.212 1056.47 115.487 1055.82 116.762C1055.17 118.037 1054.45 119.287 1053.68 120.512L1041.83 138.662H1057.13Z" fill="#E31A1A"/>
</svg>
