<svg width="242" height="144" viewBox="0 0 242 144" fill="none" xmlns="http://www.w3.org/2000/svg">
<path d="M92.75 23.3125L93.9375 25.9375C88.4375 27.8542 84.375 29.7917 81.75 31.75C79.125 33.7083 77.4167 35.7708 76.625 37.9375C75.8333 40.1042 75.4375 43.625 75.4375 48.5V61.4375L99.8125 41.875C104.938 45.125 108.812 48.1875 111.438 51.0625C114.062 53.9375 115.792 56.8125 116.625 59.6875C117.5 62.5625 117.938 67.2708 117.938 73.8125V83.125C117.938 88 117.625 91.625 117 94C116.417 96.375 115.208 98.7292 113.375 101.062C110.708 104.479 106.125 108.75 99.625 113.875C94.9583 117.542 92.0833 120.083 91 121.5C89.9167 122.917 89.375 124.125 89.375 125.125C89.375 125.667 89.5833 126.146 90 126.562C90.4167 126.979 91 127.188 91.75 127.188C92.2083 127.188 92.8333 127.083 93.625 126.875C94.4583 126.708 95.1042 126.625 95.5625 126.625C96.6458 126.625 97.4583 126.896 98 127.438C98.5417 127.979 98.8125 128.729 98.8125 129.688C98.8125 130.854 98.3542 131.812 97.4375 132.562C96.1875 133.604 94.6667 134.125 92.875 134.125C90.9583 134.125 89.3125 133.354 87.9375 131.812C86.5625 130.312 85.875 128.479 85.875 126.312C85.875 124.812 86.375 123.042 87.375 121C88.4167 119 90.9583 115.521 95 110.562C99.0417 105.562 101.646 101.792 102.812 99.25C104.021 96.6667 104.854 93.5417 105.312 89.875C100.146 87.4583 95.4583 86.25 91.25 86.25C85.875 86.25 80.5625 87.4792 75.3125 89.9375C70.0625 92.3958 64 96.75 57.125 103C60 102.875 62.1458 102.812 63.5625 102.812C66.8542 102.812 71.2708 103.083 76.8125 103.625C78.3542 103.792 79.7083 103.875 80.875 103.875C82.9167 103.875 84.7292 103.375 86.3125 102.375C87.9375 101.375 89.5833 99.6667 91.25 97.25L93.9375 98.75L80 118.375C74.2917 115.958 69.3125 114.25 65.0625 113.25C60.8542 112.25 56.5833 111.75 52.25 111.75C47.375 111.75 43.0417 112.354 39.25 113.562C35.4583 114.729 32.7917 116.229 31.25 118.062C30.0833 119.479 29.5 120.75 29.5 121.875C29.5 122.667 30 123.812 31 125.312C31.7083 126.312 32.0625 127.271 32.0625 128.188C32.0625 129.229 31.75 130.083 31.125 130.75C30.5 131.417 29.7917 131.75 29 131.75C28 131.75 27.0208 131.188 26.0625 130.062C25.1042 128.938 24.625 127.562 24.625 125.938C24.625 123.979 25.1458 122.042 26.1875 120.125C27.2708 118.25 29.625 115.479 33.25 111.812C36.9167 108.104 39.2917 105.25 40.375 103.25C41.4583 101.25 42 99.2917 42 97.375C42 95.9167 41.6042 94.7708 40.8125 93.9375C40.0208 93.1042 38.9583 92.6875 37.625 92.6875C35.125 92.6875 33.1042 94.4792 31.5625 98.0625H28.8125C29.1875 94.7708 29.875 92.2708 30.875 90.5625C31.875 88.8542 33.3958 87.3958 35.4375 86.1875C37.0208 85.2708 39.1458 84.7083 41.8125 84.5C41.6042 79.4583 40.5833 75.9792 38.75 74.0625C36.9583 72.1042 34.375 71.125 31 71.125C28.9167 71.125 27.2708 71.5208 26.0625 72.3125C24.8542 73.0625 23.6458 74.5208 22.4375 76.6875L20.125 76C20.625 73.2917 21.3125 71.25 22.1875 69.875C23.5625 67.8333 25.3958 66.25 27.6875 65.125C29.9792 63.9583 32.4167 63.375 35 63.375C36.5833 63.375 38.4167 63.4792 40.5 63.6875C40.375 61.7292 40.3125 60.0833 40.3125 58.75C40.3125 53.75 41.6875 48.9792 44.4375 44.4375C46.4375 41.1875 49.7917 37.7917 54.5 34.25C49.8333 35.75 46.6875 36.5 45.0625 36.5C43.6458 36.5 39.8958 35.9583 33.8125 34.875C31.4375 34.4167 29.8542 34.1875 29.0625 34.1875C27.6042 34.1875 26.2708 34.8125 25.0625 36.0625C23.8958 37.2708 23.0208 39.5 22.4375 42.75H19.25C19.9167 38.9167 20.8333 35.9792 22 33.9375C23.8333 30.8958 26.125 28.5625 28.875 26.9375C31.625 25.2708 34.3958 24.4375 37.1875 24.4375C38.8542 24.4375 41.7708 25.0417 45.9375 26.25C50.1042 27.4167 53.4167 28 55.875 28C60.875 28 66.4583 26.4375 72.625 23.3125L73.9375 25.9375C65.4792 29.2292 59.6667 33.3125 56.5 38.1875C54.4167 41.3958 53.375 46.6458 53.375 53.9375V83.125C53.375 88.2917 52.8333 92.3125 51.75 95.1875C50.7083 98.0208 48.3542 101.708 44.6875 106.25C49.7708 103.375 53.6667 100.479 56.375 97.5625C59.0833 94.6042 60.7917 91.8542 61.5 89.3125C62.25 86.7292 62.625 82.2917 62.625 76V54.75C62.625 48.125 63.375 43.2083 64.875 40C66.4167 36.7917 69.0625 33.9583 72.8125 31.5C76.5625 29.0417 83.2083 26.3125 92.75 23.3125ZM75.4375 65.0625V67.875C80.8958 70.0417 85.9583 71.125 90.625 71.125C93.4167 71.125 95.8542 70.8542 97.9375 70.3125C100.062 69.7708 102.521 68.7917 105.312 67.375C104.562 64.2917 103.208 61.6042 101.25 59.3125C99.2917 56.9792 96.1667 54.6042 91.875 52.1875L75.4375 65.0625ZM75.4375 86.6875C80.5625 84.4792 85.4375 83.375 90.0625 83.375C92.6042 83.375 94.9583 83.6042 97.125 84.0625C99.3333 84.5208 102.062 85.3958 105.312 86.6875V70.625C102.188 71.9583 99.5625 72.875 97.4375 73.375C95.3125 73.8333 92.9375 74.0625 90.3125 74.0625C85.5625 74.0625 80.6042 73.0417 75.4375 71V86.6875Z" fill="black"/>
<path d="M220.688 24.5625L223 26.1875C222.125 30.2292 220.917 33.4167 219.375 35.75C217.875 38.0833 215.646 39.9375 212.688 41.3125C209.771 42.6458 206.396 43.3125 202.562 43.3125C200.521 43.3125 198.042 43.1875 195.125 42.9375V106.125C201.458 104.208 206.5 101.75 210.25 98.75C214 95.7083 217.479 91.3542 220.688 85.6875L223 86.8125C221.167 92.3958 219.042 96.875 216.625 100.25C212.75 105.708 207.75 110.042 201.625 113.25C195.5 116.417 188.417 118 180.375 118C172.542 118 165.208 116.5 158.375 113.5C154.417 111.75 150.792 109.292 147.5 106.125C144.208 102.958 141.5 99.125 139.375 94.625C137.292 90.125 136.25 85.0208 136.25 79.3125C136.25 73.5625 137.396 68.0625 139.688 62.8125C141.979 57.5625 145.354 52.5417 149.812 47.75C152.646 44.75 156.646 41.4375 161.812 37.8125L153.938 37.375C151.021 37.2083 147.792 37.8333 144.25 39.25C140.708 40.625 137.938 42.4792 135.938 44.8125C133.979 47.1458 132.271 50.625 130.812 55.25L128.5 53.875C129.917 47.9583 131.75 43.3542 134 40.0625C137 35.6875 140.958 32.3125 145.875 29.9375C150.792 27.5208 156.396 26.3125 162.688 26.3125C167.062 26.3125 174.792 27.2292 185.875 29.0625C196.958 30.8958 204.583 31.8125 208.75 31.8125C211.542 31.8125 213.667 31.3958 215.125 30.5625C216.625 29.6875 218.479 27.6875 220.688 24.5625ZM168.812 38.4375L165.5 38.125C159.917 42.9167 155.812 47.7083 153.188 52.5C149.646 58.9583 147.875 65.6042 147.875 72.4375C147.875 84.1042 152.667 93.625 162.25 101C165.292 98.4583 167.146 96.3958 167.812 94.8125C168.479 93.2292 168.812 90 168.812 85.125V38.4375ZM192.25 42.375C188.292 41.8333 184.792 41.25 181.75 40.625V78C181.75 82.375 181.562 85.1667 181.188 86.375C180.854 87.5417 180.042 88.875 178.75 90.375C176.417 92.9583 171.75 97.0417 164.75 102.625C168.25 104.333 171.083 105.479 173.25 106.062C177 107.062 180.604 107.562 184.062 107.562C185.896 107.562 188.625 107.333 192.25 106.875V42.375Z" fill="#5B83D1"/>
</svg>
